<?xml version="1.0" standalone="no"?>
<!DOCTYPE svg PUBLIC "-//W3C//DTD SVG 20010904//EN"
 "http://www.w3.org/TR/2001/REC-SVG-20010904/DTD/svg10.dtd">
<svg version="1.0" xmlns="http://www.w3.org/2000/svg"
 width="2000.000000pt" height="2000.000000pt" viewBox="0 0 2000.000000 2000.000000"
 preserveAspectRatio="xMidYMid meet">

<g transform="translate(0.000000,2000.000000) scale(0.100000,-0.100000)"
fill="#000000" stroke="none">
<path d="M8395 18123 c-11 -3 -53 -25 -95 -48 -41 -24 -347 -198 -680 -388
-629 -358 -865 -492 -890 -507 -8 -5 -179 -102 -380 -216 -201 -113 -396 -224
-435 -246 -38 -22 -126 -73 -195 -112 -117 -67 -179 -103 -290 -164 -78 -43
-303 -174 -342 -199 -21 -12 -40 -23 -43 -23 -2 0 -39 -20 -81 -45 -41 -25
-77 -45 -80 -45 -2 0 -38 -20 -80 -45 -41 -25 -77 -45 -79 -45 -2 0 -88 -49
-192 -108 -104 -60 -209 -120 -233 -134 -105 -59 -712 -404 -781 -444 -118
-68 -206 -172 -248 -292 -15 -43 -16 -280 -21 -2856 l-5 -2808 -25 24 c-36 36
-162 118 -260 170 -203 107 -455 180 -769 223 -63 8 -116 13 -118 11 -3 -2 18
-33 46 -68 27 -36 76 -102 107 -149 31 -46 65 -95 75 -109 39 -57 187 -288
208 -326 l23 -41 191 -33 c106 -18 217 -38 247 -44 l55 -12 -142 -23 -143 -23
-117 46 c-65 25 -145 53 -178 61 -370 94 -794 61 -1290 -101 -174 -57 -171
-50 -47 -114 59 -30 139 -74 180 -97 40 -24 74 -43 77 -43 6 0 214 -126 357
-216 64 -41 123 -74 131 -74 8 0 101 25 208 56 298 86 323 93 327 89 2 -2 -35
-29 -83 -62 -138 -93 -235 -164 -235 -171 0 -4 53 -40 118 -81 64 -41 141 -90
170 -109 l52 -34 266 57 c146 31 267 55 269 53 2 -2 -76 -52 -172 -112 l-176
-109 25 -21 c58 -47 242 -170 335 -222 101 -58 250 -124 277 -124 14 0 16
-163 16 -1649 0 -1079 4 -1667 10 -1702 26 -137 127 -268 252 -327 79 -38 144
-49 233 -41 82 8 97 14 385 179 113 64 278 159 368 210 89 51 165 96 167 100
3 5 5 2028 5 4497 0 3950 2 4496 15 4546 30 114 89 198 185 263 25 17 135 81
245 143 317 179 342 194 490 278 77 45 246 141 375 213 129 73 422 240 650
370 228 130 462 262 520 295 58 32 125 70 150 85 25 16 146 85 270 155 124 70
267 152 318 181 51 30 95 54 97 54 3 0 34 18 70 40 36 22 67 40 69 40 2 0 34
18 70 40 36 22 68 40 70 40 2 0 37 19 78 43 40 24 96 56 123 71 28 16 104 59
170 96 66 37 172 97 235 133 l115 64 3 832 2 832 -27 56 c-53 108 -207 235
-348 288 -64 24 -181 39 -220 28z m-5783 -8479 c217 -109 394 -238 541 -395
l97 -103 0 -65 0 -64 -74 99 c-154 207 -362 388 -616 536 -89 52 -59 48 52 -8z
m-612 -639 c220 -32 453 -106 620 -197 149 -81 401 -277 358 -278 -23 0 -24 1
17 -74 19 -36 35 -68 35 -72 0 -4 -44 35 -97 87 -324 313 -680 467 -1252 540
l-146 18 180 -4 c99 -3 227 -12 285 -20z m1250 -432 c0 -20 -24 -11 -28 10 -2
12 1 15 12 11 9 -3 16 -13 16 -21z"/>
<path d="M13208 16933 c7 -3 16 -2 19 1 4 3 -2 6 -13 5 -11 0 -14 -3 -6 -6z"/>
<path d="M13586 16777 c3 -10 9 -15 12 -12 3 3 0 11 -7 18 -10 9 -11 8 -5 -6z"/>
<path d="M13656 16697 c3 -10 9 -15 12 -12 3 3 0 11 -7 18 -10 9 -11 8 -5 -6z"/>
<path d="M13453 16592 c10 -10 14 -22 10 -27 -5 -4 -2 -5 5 -1 11 6 10 12 -4
27 -9 10 -19 19 -22 19 -3 0 2 -8 11 -18z"/>
<path d="M13821 16414 c0 -11 3 -14 6 -6 3 7 2 16 -1 19 -3 4 -6 -2 -5 -13z"/>
<path d="M13515 16230 c-16 -7 -17 -9 -3 -9 9 -1 20 4 23 9 7 11 7 11 -20 0z"/>
<path d="M13210 16064 c0 -6 7 -19 16 -30 14 -18 14 -18 3 6 -14 31 -19 36
-19 24z"/>
<path d="M13716 15947 c3 -10 9 -15 12 -12 3 3 0 11 -7 18 -10 9 -11 8 -5 -6z"/>
<path d="M13290 15861 c0 -6 4 -13 10 -16 6 -3 7 1 4 9 -7 18 -14 21 -14 7z"/>
<path d="M13570 15715 c-7 -9 -11 -17 -9 -20 3 -2 10 5 17 15 14 24 10 26 -8
5z"/>
<path d="M9490 15596 c0 -2 7 -7 16 -10 8 -3 12 -2 9 4 -6 10 -25 14 -25 6z"/>
<path d="M9365 15501 c-3 -5 -2 -12 3 -15 5 -3 9 1 9 9 0 17 -3 19 -12 6z"/>
<path d="M13250 15416 c0 -2 7 -7 16 -10 8 -3 12 -2 9 4 -6 10 -25 14 -25 6z"/>
<path d="M9355 15371 c-3 -5 -2 -12 3 -15 5 -3 9 1 9 9 0 17 -3 19 -12 6z"/>
<path d="M9320 15250 c-8 -5 -10 -10 -5 -10 6 0 17 5 25 10 8 5 11 10 5 10 -5
0 -17 -5 -25 -10z"/>
<path d="M9640 15151 c-25 -15 -75 -44 -112 -64 -37 -21 -105 -59 -150 -86
-86 -50 -528 -304 -608 -349 -25 -14 -61 -36 -80 -49 -19 -12 -38 -23 -43 -23
-4 0 -26 -12 -50 -27 -23 -15 -51 -33 -62 -39 -166 -93 -439 -252 -452 -263
-7 -6 -15 -11 -19 -11 -3 0 -47 -24 -98 -54 -135 -79 -450 -261 -516 -298 -79
-45 -422 -243 -505 -293 -44 -26 -100 -58 -125 -72 -45 -24 -83 -46 -197 -112
-247 -145 -419 -244 -478 -276 -38 -21 -89 -51 -113 -66 -24 -16 -46 -29 -49
-29 -3 0 -32 -16 -64 -36 -32 -19 -63 -32 -69 -29 -6 4 -9 2 -8 -5 2 -6 -24
-25 -57 -44 -33 -18 -151 -86 -263 -150 l-202 -118 0 -704 c0 -479 3 -704 10
-704 7 0 7 -6 0 -19 -11 -21 -14 -209 -4 -235 3 -9 16 -16 27 -16 22 0 239
117 245 132 2 4 8 8 14 8 6 0 36 16 68 35 44 27 62 45 74 75 21 52 22 207 2
235 -13 19 -10 23 41 53 41 24 53 28 47 15 -5 -10 -10 -70 -12 -134 -3 -113
-2 -117 19 -122 23 -6 62 11 164 71 173 102 175 105 175 254 0 89 -3 109 -17
116 -14 8 -13 11 8 22 13 7 44 24 69 39 l44 25 -17 -24 c-13 -19 -17 -47 -17
-132 0 -97 2 -108 20 -118 27 -14 45 -6 325 158 285 166 275 155 275 315 0 88
-3 109 -16 114 -11 4 -7 10 18 26 58 37 78 46 78 36 0 -5 -5 -9 -10 -9 -7 0
-10 -43 -8 -122 l3 -123 30 -3 c17 -1 41 4 55 13 14 8 43 24 65 35 181 95 190
107 190 248 0 59 -4 117 -8 128 -7 19 2 27 71 68 83 48 103 56 82 31 -8 -10
-12 -51 -11 -127 2 -153 11 -158 151 -73 50 30 95 55 100 55 6 0 10 5 10 10 0
6 4 10 9 10 26 0 133 74 147 102 20 39 23 231 3 254 -6 8 -10 16 -8 17 2 2 30
18 62 36 49 27 56 29 48 12 -6 -11 -11 -70 -11 -131 0 -106 1 -111 23 -119 16
-6 37 -1 82 23 33 17 62 34 65 37 3 4 21 15 40 25 19 11 97 55 172 98 l138 78
107 142 c58 77 109 143 113 146 32 27 56 130 30 130 -25 0 -5 21 48 52 31 18
62 35 67 37 6 2 45 26 87 53 43 26 81 48 85 48 5 0 39 20 76 45 93 61 239 147
341 199 46 24 132 72 190 107 l106 63 -6 701 c-3 385 -7 701 -8 702 -1 1 -22
-11 -46 -26z m-189 -617 c113 -100 58 -374 -110 -547 -173 -179 -362 -139
-363 78 -1 175 135 400 285 471 64 31 153 30 188 -2z m-1601 -886 l0 -173 -63
-36 c-34 -20 -213 -123 -397 -229 -570 -329 -714 -412 -747 -432 l-33 -20 0
175 0 174 397 229 c218 126 496 286 618 356 121 70 221 128 223 128 1 0 2 -78
2 -172z m620 -15 c0 -53 -3 -59 -28 -74 -175 -102 -456 -264 -617 -356 -201
-117 -308 -178 -620 -358 -469 -271 -580 -335 -585 -335 -3 0 -7 26 -8 58 l-2
57 48 26 c52 28 1164 670 1307 754 214 126 491 284 498 285 4 0 7 -26 7 -57z
m-2191 -829 c1 -1 -46 -76 -105 -165 l-109 -161 -5 61 -5 61 -99 -57 c-58 -34
-112 -74 -130 -96 l-31 -39 -5 -309 -5 -309 -57 -34 c-31 -19 -59 -32 -62 -29
-3 4 -6 137 -6 297 0 319 4 350 59 453 45 83 103 136 228 209 l108 62 3 65 3
65 107 -35 c59 -20 109 -37 111 -39z m1131 -13 l0 -59 -152 -88 c-84 -48 -260
-150 -391 -226 -131 -76 -242 -138 -246 -138 -3 0 -8 22 -9 50 -1 38 3 53 17
67 11 10 122 77 248 149 291 167 406 234 468 272 28 17 53 31 58 31 4 1 7 -26
7 -58z"/>
<path d="M13560 15171 c0 -6 4 -13 10 -16 6 -3 7 1 4 9 -7 18 -14 21 -14 7z"/>
<path d="M13940 15020 c8 -5 20 -10 25 -10 6 0 3 5 -5 10 -8 5 -19 10 -25 10
-5 0 -3 -5 5 -10z"/>
<path d="M9305 14990 c-3 -6 1 -7 9 -4 18 7 21 14 7 14 -6 0 -13 -4 -16 -10z"/>
<path d="M7442 14391 c-11 -7 -11 -9 0 -14 9 -3 15 1 15 9 0 8 -1 14 -1 14 -1
0 -7 -4 -14 -9z"/>
<path d="M7663 14273 c4 -3 1 -13 -6 -22 -11 -14 -10 -14 5 -2 16 12 16 31 1
31 -4 0 -3 -3 0 -7z"/>
<path d="M13809 14170 c-122 -20 -222 -117 -251 -241 l-12 -51 -36 5 c-61 8
-260 -10 -345 -32 -114 -29 -234 -93 -304 -160 -118 -114 -154 -258 -85 -340
22 -27 24 -33 14 -73 -24 -105 -6 -290 35 -354 8 -13 21 -89 30 -175 36 -354
76 -480 174 -546 31 -21 54 -29 136 -48 l30 -7 -30 -20 c-17 -12 -61 -53 -100
-92 -164 -167 -257 -450 -272 -824 -4 -112 -9 -152 -18 -148 -8 3 -12 -10 -13
-40 -3 -79 -47 -247 -71 -276 -4 -4 -31 4 -60 18 -59 29 -144 40 -215 30 -50
-8 -63 -26 -18 -26 101 0 253 -150 268 -263 8 -61 9 -60 73 128 29 83 56 154
61 158 4 5 11 -11 14 -35 4 -23 17 -101 29 -173 l22 -130 6 215 c12 403 59
685 154 932 63 162 146 292 267 419 85 89 212 176 207 142 -1 -5 -1 -25 0 -46
1 -36 2 -37 29 -31 109 26 232 87 302 150 50 45 94 110 87 129 -4 8 -1 14 5
12 10 -2 29 51 48 138 5 22 9 128 10 235 0 215 7 254 51 305 31 35 89 61 114
51 21 -8 21 217 0 299 -21 83 -40 105 -123 145 -53 26 -72 40 -72 55 0 39 -21
95 -45 124 l-25 29 56 27 c125 61 169 210 93 316 -40 56 -129 84 -220 69z
m-102 -287 c13 -9 23 -20 23 -25 0 -5 -6 -6 -12 -1 -7 4 -42 13 -78 19 -59 10
-63 12 -40 22 29 13 75 6 107 -15z m2 -570 c6 -32 36 -110 67 -173 77 -158 85
-184 85 -271 1 -195 -133 -308 -329 -279 -199 30 -231 32 -292 22 -64 -12
-192 -65 -211 -88 -15 -18 -64 -18 -82 1 -27 26 -83 404 -94 630 l-6 130 117
-3 c185 -6 512 31 669 77 60 17 64 15 76 -46z"/>
<path d="M13489 13178 l-24 -9 23 -17 c12 -9 44 -30 72 -45 l50 -28 0 29 c0
60 -57 93 -121 70z"/>
<path d="M12908 13113 c-19 -22 -30 -64 -20 -80 5 -8 25 2 65 33 31 25 57 50
57 55 0 17 -86 10 -102 -8z"/>
<path d="M13446 12964 c-33 -32 -8 -104 35 -104 28 0 59 31 59 59 0 51 -60 80
-94 45z"/>
<path d="M12986 12947 c-12 -9 -17 -23 -14 -47 7 -73 108 -73 108 0 0 52 -52
78 -94 47z"/>
<path d="M13195 12834 c-97 -156 -96 -154 -82 -159 28 -9 168 -37 170 -34 5
10 -16 289 -22 289 -4 0 -34 -43 -66 -96z"/>
<path d="M7338 14103 c6 -2 9 -10 6 -15 -4 -7 -2 -8 5 -4 13 9 5 26 -12 25 -9
0 -8 -2 1 -6z"/>
<path d="M7210 13780 c-9 -6 -10 -10 -3 -10 6 0 15 5 18 10 8 12 4 12 -15 0z"/>
<path d="M9549 13568 c-100 -99 -170 -181 -274 -322 -77 -104 -147 -196 -155
-205 -70 -79 -325 -424 -368 -498 -141 -242 -212 -478 -212 -707 0 -176 41
-314 118 -402 15 -17 38 -46 52 -65 85 -114 169 -161 300 -167 197 -10 394 91
603 306 l87 91 0 1051 c0 577 -4 1050 -9 1050 -4 0 -68 -60 -142 -132z"/>
<path d="M9335 13460 c-4 -6 -10 -8 -15 -5 -5 3 -11 1 -14 -4 -8 -13 22 -7 36
7 7 7 9 12 6 12 -4 0 -10 -5 -13 -10z"/>
<path d="M6090 13375 c-14 -8 -20 -14 -15 -14 6 0 21 6 35 14 14 8 21 14 15
14 -5 0 -21 -6 -35 -14z"/>
<path d="M9000 13341 c0 -5 5 -13 10 -16 6 -3 10 -2 10 4 0 5 -4 13 -10 16 -5
3 -10 2 -10 -4z"/>
<path d="M8961 13313 c7 -12 15 -20 18 -17 3 2 -3 12 -13 22 -17 16 -18 16 -5
-5z"/>
<path d="M9107 13149 c7 -7 15 -10 18 -7 3 3 -2 9 -12 12 -14 6 -15 5 -6 -5z"/>
<path d="M9080 13130 c-12 -7 -10 -9 7 -7 12 0 19 5 17 9 -6 10 -6 10 -24 -2z"/>
<path d="M5390 13111 c0 -6 4 -13 10 -16 6 -3 7 1 4 9 -7 18 -14 21 -14 7z"/>
<path d="M8753 13028 c-15 -20 -25 -38 -20 -38 3 0 12 11 21 25 17 26 16 35
-1 13z"/>
<path d="M8944 12989 c-3 -6 -2 -15 3 -20 5 -5 9 -1 9 11 0 23 -2 24 -12 9z"/>
<path d="M8857 12833 c-4 -3 -7 -11 -7 -17 0 -6 5 -5 12 2 6 6 9 14 7 17 -3 3
-9 2 -12 -2z"/>
<path d="M8571 12778 c5 -10 11 -18 12 -18 2 0 3 8 3 18 0 10 -6 19 -13 19 -8
0 -9 -6 -2 -19z"/>
<path d="M8405 12569 c-4 -6 -5 -12 -2 -15 2 -3 7 2 10 11 7 17 1 20 -8 4z"/>
<path d="M8626 12572 c-3 -5 1 -9 9 -9 8 0 12 4 9 9 -3 4 -7 8 -9 8 -2 0 -6
-4 -9 -8z"/>
<path d="M15761 12434 c-105 -53 -229 -192 -290 -325 -45 -100 -45 -99 -61
-184 -30 -153 17 -288 113 -324 40 -16 117 -14 167 4 23 8 46 15 49 15 10 0
40 -347 51 -584 8 -179 11 -201 29 -217 31 -29 39 -23 48 39 10 72 9 371 -1
397 -4 11 -10 40 -12 65 -3 36 -47 206 -80 311 -4 10 5 22 21 33 73 48 166
166 222 281 104 216 94 411 -26 492 -51 34 -158 33 -230 -3z"/>
<path d="M8014 12384 c-32 -20 -93 -55 -134 -79 -319 -180 -419 -240 -442
-266 l-28 -29 0 -260 c0 -229 2 -261 16 -267 33 -12 75 26 177 163 58 78 112
150 121 160 8 11 52 66 96 124 44 58 90 116 100 130 11 14 52 68 92 120 40 52
78 101 85 108 7 7 13 16 13 20 1 4 5 26 9 50 5 23 6 41 4 38 -3 -3 -12 1 -20
9 -20 20 -21 20 -89 -21z"/>
<path d="M8246 12392 c-3 -5 1 -9 9 -9 8 0 12 4 9 9 -3 4 -7 8 -9 8 -2 0 -6
-4 -9 -8z"/>
<path d="M8376 12203 c-6 -14 -5 -15 5 -6 7 7 10 15 7 18 -3 3 -9 -2 -12 -12z"/>
<path d="M8366 12168 c3 -5 10 -6 15 -3 13 9 11 12 -6 12 -8 0 -12 -4 -9 -9z"/>
<path d="M14394 12020 c-252 -286 -324 -908 -174 -1497 33 -130 103 -333 128
-369 4 -7 15 -8 30 -3 20 8 22 15 22 82 0 41 -3 135 -7 210 -6 128 -7 136 -27
139 -20 3 -22 12 -29 128 -12 193 -2 707 17 820 34 207 84 330 163 400 46 40
50 42 97 36 l49 -5 -34 24 c-30 23 -71 38 -169 62 -32 8 -37 6 -66 -27z"/>
<path d="M7926 11987 c3 -10 9 -15 12 -12 3 3 0 11 -7 18 -10 9 -11 8 -5 -6z"/>
<path d="M7950 11996 c0 -2 8 -10 18 -17 15 -13 16 -12 3 4 -13 16 -21 21 -21
13z"/>
<path d="M14698 11973 c7 -3 16 -2 19 1 4 3 -2 6 -13 5 -11 0 -14 -3 -6 -6z"/>
<path d="M7175 11900 c-27 -17 -58 -33 -67 -36 -10 -4 -18 -10 -18 -15 0 -5
-5 -9 -10 -9 -6 0 -65 -32 -133 -71 -67 -40 -151 -88 -186 -108 -103 -57 -102
-56 -101 -342 0 -133 3 -246 6 -250 8 -14 60 -11 96 5 36 16 101 40 218 81 41
15 89 33 105 40 17 7 55 21 85 31 119 39 121 46 120 385 -1 149 -5 282 -10
295 -13 32 -43 31 -105 -6z"/>
<path d="M8146 11907 c3 -10 9 -15 12 -12 3 3 0 11 -7 18 -10 9 -11 8 -5 -6z"/>
<path d="M8126 11897 c3 -10 9 -15 12 -12 3 3 0 11 -7 18 -10 9 -11 8 -5 -6z"/>
<path d="M7692 11675 c3 -3 16 -8 28 -10 12 -2 20 -1 16 2 -4 4 -16 8 -28 10
-12 2 -19 1 -16 -2z"/>
<path d="M8290 11660 c0 -5 5 -10 11 -10 5 0 7 5 4 10 -3 6 -8 10 -11 10 -2 0
-4 -4 -4 -10z"/>
<path d="M7690 11635 c-7 -9 -11 -17 -9 -20 3 -2 10 5 17 15 14 24 10 26 -8 5z"/>
<path d="M7674 11578 c0 -10 1 -18 3 -18 1 0 7 8 12 18 7 13 6 19 -2 19 -7 0
-13 -9 -13 -19z"/>
<path d="M7625 11521 c-3 -5 -2 -12 3 -15 5 -3 9 1 9 9 0 17 -3 19 -12 6z"/>
<path d="M6460 11488 c-30 -18 -57 -34 -60 -37 -3 -3 -23 -15 -45 -26 -22 -10
-59 -32 -83 -47 -24 -15 -46 -28 -49 -28 -3 0 -58 -31 -122 -69 -74 -44 -122
-80 -133 -99 -15 -24 -18 -57 -19 -195 0 -92 2 -171 6 -177 12 -20 58 -9 243
59 103 38 218 80 256 93 56 18 75 31 98 62 l28 39 0 217 c0 155 -3 219 -12
228 -19 19 -49 14 -108 -20z"/>
<path d="M7524 11418 c0 -10 1 -18 1 -18 0 0 8 9 17 19 16 18 15 20 -1 18 -9
0 -17 -9 -17 -19z"/>
<path d="M7869 11397 c-15 -12 -61 -69 -103 -126 -55 -74 -76 -112 -76 -133 0
-32 45 -100 99 -152 17 -17 31 -33 31 -37 0 -21 57 -69 82 -69 32 0 35 3 118
110 34 44 40 52 68 85 20 24 33 80 25 103 -15 39 -183 242 -201 242 -9 0 -29
-10 -43 -23z"/>
<path d="M7450 11356 c0 -2 7 -9 15 -16 9 -7 15 -8 15 -2 0 5 -7 12 -15 16 -8
3 -15 4 -15 2z"/>
<path d="M8556 11268 c3 -5 10 -6 15 -3 13 9 11 12 -6 12 -8 0 -12 -4 -9 -9z"/>
<path d="M8590 11260 c-6 -11 -8 -20 -6 -20 3 0 10 9 16 20 6 11 8 20 6 20 -3
0 -10 -9 -16 -20z"/>
<path d="M7676 11243 c-6 -14 -5 -15 5 -6 7 7 10 15 7 18 -3 3 -9 -2 -12 -12z"/>
<path d="M8280 11220 c-6 -11 -8 -20 -6 -20 3 0 10 9 16 20 6 11 8 20 6 20 -3
0 -10 -9 -16 -20z"/>
<path d="M8616 11213 c-6 -14 -5 -15 5 -6 7 7 10 15 7 18 -3 3 -9 -2 -12 -12z"/>
<path d="M7586 11212 c-3 -5 1 -9 9 -9 8 0 12 4 9 9 -3 4 -7 8 -9 8 -2 0 -6
-4 -9 -8z"/>
<path d="M8306 11212 c-3 -5 1 -9 9 -9 8 0 12 4 9 9 -3 4 -7 8 -9 8 -2 0 -6
-4 -9 -8z"/>
<path d="M9400 11100 c6 -11 13 -20 16 -20 2 0 0 9 -6 20 -6 11 -13 20 -16 20
-2 0 0 -9 6 -20z"/>
<path d="M9426 11108 c3 -5 10 -6 15 -3 13 9 11 12 -6 12 -8 0 -12 -4 -9 -9z"/>
<path d="M5759 11082 c-26 -15 -122 -71 -215 -124 -93 -53 -180 -108 -194
-123 -23 -24 -25 -35 -28 -139 -5 -136 0 -143 75 -121 129 38 419 156 442 180
25 24 26 31 29 166 2 78 1 152 -2 165 -9 33 -48 31 -107 -4z"/>
<path d="M8158 11039 c-14 -10 -57 -61 -94 -112 -38 -50 -72 -95 -77 -98 -14
-10 -10 -89 5 -102 8 -7 28 -30 44 -52 16 -22 43 -56 61 -75 18 -19 33 -37 33
-41 0 -3 11 -19 25 -35 14 -16 51 -61 83 -101 64 -82 89 -90 135 -48 15 14 27
29 27 33 0 4 10 19 23 32 123 139 133 179 62 268 -26 31 -56 70 -68 86 -12 16
-34 43 -48 60 -14 17 -53 68 -88 113 -51 67 -80 95 -94 93 -1 0 -14 -10 -29
-21z"/>
<path d="M8774 11020 c0 -9 5 -17 11 -17 6 0 11 8 11 17 0 9 -5 17 -11 17 -6
0 -11 -8 -11 -17z"/>
<path d="M7560 11016 c0 -2 8 -10 18 -17 15 -13 16 -12 3 4 -13 16 -21 21 -21
13z"/>
<path d="M9550 10980 c6 -11 13 -20 16 -20 2 0 0 9 -6 20 -6 11 -13 20 -16 20
-2 0 0 -9 6 -20z"/>
<path d="M9509 10963 c-12 -16 -12 -17 2 -6 9 7 20 9 24 5 5 -4 5 -1 1 6 -9
16 -11 15 -27 -5z"/>
<path d="M6718 10948 c5 -5 16 -8 23 -6 8 3 3 7 -10 11 -17 4 -21 3 -13 -5z"/>
<path d="M9496 10903 c-6 -14 -5 -15 5 -6 7 7 10 15 7 18 -3 3 -9 -2 -12 -12z"/>
<path d="M7664 10869 c-3 -6 -2 -15 3 -20 5 -5 9 -1 9 11 0 23 -2 24 -12 9z"/>
<path d="M7310 10856 c0 -2 8 -10 18 -17 15 -13 16 -12 3 4 -13 16 -21 21 -21
13z"/>
<path d="M9536 10825 c-18 -27 -129 -169 -172 -219 -13 -15 -24 -30 -24 -33 0
-3 -14 -22 -30 -42 -17 -20 -36 -43 -43 -51 -13 -16 -86 -107 -132 -165 -16
-21 -35 -43 -40 -49 -6 -6 -33 -40 -60 -76 -26 -36 -72 -95 -102 -131 -53 -67
-64 -89 -40 -89 6 0 77 -5 157 -11 183 -14 182 -14 200 12 8 12 44 59 80 104
36 46 90 115 120 155 30 40 68 87 83 106 l28 33 -1 238 c0 130 -2 238 -4 240
-2 2 -11 -8 -20 -22z"/>
<path d="M7045 10820 c-16 -7 -17 -9 -3 -9 9 -1 20 4 23 9 7 11 7 11 -20 0z"/>
<path d="M8577 10816 c-4 -10 -1 -13 9 -9 7 3 14 9 14 14 0 14 -17 10 -23 -5z"/>
<path d="M7286 10808 c3 -5 10 -6 15 -3 13 9 11 12 -6 12 -8 0 -12 -4 -9 -9z"/>
<path d="M7326 10808 c3 -5 10 -6 15 -3 13 9 11 12 -6 12 -8 0 -12 -4 -9 -9z"/>
<path d="M7716 10787 c3 -10 9 -15 12 -12 3 3 0 11 -7 18 -10 9 -11 8 -5 -6z"/>
<path d="M8944 10789 c-3 -6 -2 -15 3 -20 5 -5 9 -1 9 11 0 23 -2 24 -12 9z"/>
<path d="M10795 10744 c-328 -59 -592 -155 -822 -298 l-83 -51 -1 -80 c0 -44
-2 -92 -3 -107 -1 -16 1 -28 4 -28 3 0 24 18 45 41 98 101 287 242 430 321
128 70 150 75 58 12 -126 -84 -355 -273 -403 -331 -59 -71 -116 -139 -121
-143 -4 -3 -9 -344 -13 -758 l-6 -753 23 7 c87 26 346 193 545 352 30 23 38
17 -171 132 -92 51 -166 94 -164 96 2 3 124 -16 271 -41 147 -25 272 -43 278
-39 12 8 321 225 327 230 2 2 -45 34 -103 71 -202 128 -241 155 -219 150 12
-3 137 -33 278 -67 l256 -62 129 88 c197 135 420 277 568 362 l132 77 -52 18
c-29 10 -100 31 -158 47 -559 152 -1046 140 -1423 -38 l-98 -46 -132 13 c-149
15 -182 25 -116 35 24 4 132 26 239 50 l194 43 36 59 c20 32 50 84 67 114 60
110 224 373 300 482 18 26 33 50 33 53 0 8 -38 4 -125 -11z m675 -763 c-8 -5
-44 -12 -80 -15 -102 -11 -294 -52 -430 -91 -326 -94 -582 -245 -824 -486 -65
-66 -120 -119 -122 -119 -2 0 6 16 17 35 12 19 17 35 12 35 -4 0 -3 4 2 8 6 4
18 21 27 37 15 28 15 32 1 41 -13 8 -4 20 53 73 214 197 421 313 704 396 140
40 324 72 485 84 171 12 173 12 155 2z"/>
<path d="M7255 10740 c-4 -6 -10 -8 -15 -5 -5 3 -11 1 -14 -4 -8 -13 22 -7 36
7 7 7 9 12 6 12 -4 0 -10 -5 -13 -10z"/>
<path d="M7826 10707 c3 -10 9 -15 12 -12 3 3 0 11 -7 18 -10 9 -11 8 -5 -6z"/>
<path d="M5990 10670 c-9 -6 -10 -10 -3 -10 6 0 15 5 18 10 8 12 4 12 -15 0z"/>
<path d="M7520 10660 c6 -11 13 -20 16 -20 2 0 0 9 -6 20 -6 11 -13 20 -16 20
-2 0 0 -9 6 -20z"/>
<path d="M7836 10628 c3 -5 10 -6 15 -3 13 9 11 12 -6 12 -8 0 -12 -4 -9 -9z"/>
<path d="M7531 10613 c-2 -20 16 -24 30 -5 13 15 12 16 -3 4 -13 -10 -17 -10
-21 0 -4 9 -6 9 -6 1z"/>
<path d="M12307 10584 c-36 -44 -35 -48 47 -194 76 -138 115 -185 164 -201 53
-17 102 -56 119 -97 14 -35 19 -158 8 -204 -7 -28 31 -102 71 -139 24 -21 26
-22 19 -4 -28 70 -44 128 -51 184 -6 53 -5 63 7 58 191 -83 327 -106 389 -68
16 11 18 5 -56 141 -22 41 -58 107 -78 145 -50 93 -80 122 -182 181 -47 27
-93 54 -102 59 -9 6 -48 28 -87 49 -38 22 -104 59 -145 83 -41 24 -79 43 -85
43 -5 0 -23 -16 -38 -36z"/>
<path d="M6772 10580 c-29 -10 -98 -35 -155 -54 -158 -55 -270 -100 -294 -116
-11 -9 -32 -33 -45 -55 -22 -39 -23 -46 -23 -270 0 -126 4 -242 8 -257 12 -44
58 -38 162 22 48 28 88 50 91 50 2 0 33 18 69 40 36 22 68 40 70 40 3 0 23 11
44 25 71 44 87 76 126 251 19 87 39 177 45 199 15 63 12 103 -10 125 -24 24
-22 24 -88 0z"/>
<path d="M9236 10573 c-6 -14 -5 -15 5 -6 7 7 10 15 7 18 -3 3 -9 -2 -12 -12z"/>
<path d="M7534 10572 c4 -3 14 -7 22 -8 9 -1 13 0 10 4 -4 3 -14 7 -22 8 -9 1
-13 0 -10 -4z"/>
<path d="M7905 10546 c10 -14 19 -26 22 -26 7 0 -17 39 -28 46 -6 3 -3 -5 6
-20z"/>
<path d="M8800 10551 c0 -6 4 -13 10 -16 6 -3 7 1 4 9 -7 18 -14 21 -14 7z"/>
<path d="M5540 10547 c0 -9 60 -26 64 -18 3 4 0 8 -7 8 -7 0 -22 3 -34 7 -13
4 -23 5 -23 3z"/>
<path d="M8537 10468 c-144 -173 -158 -210 -106 -288 19 -27 41 -52 50 -55 27
-9 62 13 99 63 19 26 47 61 63 77 33 36 67 103 67 132 0 11 -18 43 -41 72 -54
67 -74 67 -132 -1z"/>
<path d="M8815 10509 c-4 -6 -5 -12 -2 -15 2 -3 7 2 10 11 7 17 1 20 -8 4z"/>
<path d="M8845 10509 c-4 -6 -5 -12 -2 -15 2 -3 7 2 10 11 7 17 1 20 -8 4z"/>
<path d="M9169 10493 c-13 -16 -12 -17 4 -4 16 13 21 21 13 21 -2 0 -10 -8
-17 -17z"/>
<path d="M8866 10492 c-3 -5 1 -9 9 -9 8 0 12 4 9 9 -3 4 -7 8 -9 8 -2 0 -6
-4 -9 -8z"/>
<path d="M7329 10457 c-30 -20 -101 -120 -96 -136 1 -3 -11 -58 -25 -121 -36
-155 -74 -325 -98 -440 -11 -52 -26 -126 -35 -165 -27 -124 -23 -146 42 -228
31 -40 62 -79 70 -87 18 -20 63 -78 158 -201 114 -150 139 -173 178 -165 59
11 75 28 317 337 58 73 124 157 147 185 63 79 87 131 87 194 1 60 -6 73 -91
169 -24 27 -43 53 -43 59 0 6 -4 12 -8 14 -4 2 -56 64 -115 138 -60 74 -125
155 -145 179 -20 24 -41 51 -46 60 -5 9 -12 18 -16 21 -3 3 -43 51 -88 108
-79 97 -85 102 -121 102 -23 0 -51 -9 -72 -23z"/>
<path d="M7690 10426 c0 -2 8 -10 18 -17 15 -13 16 -12 3 4 -13 16 -21 21 -21
13z"/>
<path d="M9025 10349 c-4 -6 -5 -12 -2 -15 2 -3 7 2 10 11 7 17 1 20 -8 4z"/>
<path d="M5955 10293 c-55 -19 -143 -50 -195 -68 -208 -72 -235 -87 -271 -157
-18 -34 -19 -62 -19 -360 0 -277 2 -327 16 -346 22 -31 50 -28 126 17 37 21
70 40 75 42 8 4 87 51 303 178 64 38 103 69 122 96 l27 40 1 286 c0 209 -3
288 -12 297 -20 20 -67 13 -173 -25z"/>
<path d="M7814 10258 l-19 -23 24 20 c21 17 24 18 18 3 -4 -11 -2 -17 6 -15 7
1 11 -4 9 -11 -1 -8 2 -11 8 -7 6 4 4 15 -6 31 -9 13 -17 24 -19 24 -1 0 -10
-10 -21 -22z"/>
<path d="M8194 10232 c4 -3 14 -7 22 -8 9 -1 13 0 10 4 -4 3 -14 7 -22 8 -9 1
-13 0 -10 -4z"/>
<path d="M8726 10213 c-6 -14 -5 -15 5 -6 7 7 10 15 7 18 -3 3 -9 -2 -12 -12z"/>
<path d="M8199 10192 c-13 -15 -12 -16 3 -4 13 10 17 10 21 0 4 -9 6 -9 6 -1
2 20 -16 24 -30 5z"/>
<path d="M7850 10181 c0 -6 4 -13 10 -16 6 -3 7 1 4 9 -7 18 -14 21 -14 7z"/>
<path d="M7906 10172 c-3 -5 1 -9 9 -9 8 0 12 4 9 9 -3 4 -7 8 -9 8 -2 0 -6
-4 -9 -8z"/>
<path d="M8230 10140 c6 -11 13 -20 16 -20 2 0 0 9 -6 20 -6 11 -13 20 -16 20
-2 0 0 -9 6 -20z"/>
<path d="M9506 10148 c3 -5 10 -6 15 -3 13 9 11 12 -6 12 -8 0 -12 -4 -9 -9z"/>
<path d="M9480 10141 c0 -6 4 -13 10 -16 6 -3 7 1 4 9 -7 18 -14 21 -14 7z"/>
<path d="M15032 9793 c3 -274 5 -312 21 -341 22 -40 143 -121 194 -129 l35 -6
-18 29 c-17 25 -19 49 -19 224 0 107 2 255 4 329 l5 134 -33 23 c-29 20 -126
44 -175 44 -16 0 -17 -22 -14 -307z"/>
<path d="M8579 10063 c-13 -16 -12 -17 4 -4 16 13 21 21 13 21 -2 0 -10 -8
-17 -17z"/>
<path d="M9630 10020 c6 -11 13 -20 16 -20 2 0 0 9 -6 20 -6 11 -13 20 -16 20
-2 0 0 -9 6 -20z"/>
<path d="M9656 10027 c3 -10 9 -15 12 -12 3 3 0 11 -7 18 -10 9 -11 8 -5 -6z"/>
<path d="M8020 10026 c0 -2 7 -9 15 -16 13 -11 14 -10 9 4 -5 14 -24 23 -24
12z"/>
<path d="M8776 10008 c3 -5 10 -6 15 -3 13 9 11 12 -6 12 -8 0 -12 -4 -9 -9z"/>
<path d="M9596 10012 c-3 -5 1 -9 9 -9 8 0 12 4 9 9 -3 4 -7 8 -9 8 -2 0 -6
-4 -9 -8z"/>
<path d="M8385 9989 c-4 -6 -5 -12 -2 -15 2 -3 7 2 10 11 7 17 1 20 -8 4z"/>
<path d="M8515 9989 c-4 -6 -5 -12 -2 -15 2 -3 7 2 10 11 7 17 1 20 -8 4z"/>
<path d="M8084 9940 c0 -13 4 -16 10 -10 7 7 7 13 0 20 -6 6 -10 3 -10 -10z"/>
<path d="M9284 9898 c0 -10 1 -18 1 -18 0 0 8 9 17 19 16 18 15 20 -1 18 -9 0
-17 -9 -17 -19z"/>
<path d="M6590 9805 c-19 -13 -41 -24 -47 -24 -7 -1 -13 -5 -13 -11 0 -5 -6
-10 -14 -10 -7 0 -25 -9 -40 -21 -15 -11 -33 -18 -42 -15 -8 3 -12 1 -9 -4 3
-5 -14 -19 -37 -31 -24 -12 -56 -33 -71 -48 -52 -48 -57 -74 -57 -307 l0 -214
25 -16 c25 -16 57 -12 81 10 68 62 221 217 240 241 21 28 50 113 59 177 2 14
13 65 24 113 24 98 27 155 9 173 -19 19 -70 13 -108 -13z"/>
<path d="M7021 9814 c0 -11 3 -14 6 -6 3 7 2 16 -1 19 -3 4 -6 -2 -5 -13z"/>
<path d="M9098 9823 c7 -3 16 -2 19 1 4 3 -2 6 -13 5 -11 0 -14 -3 -6 -6z"/>
<path d="M8170 9806 c0 -2 8 -10 18 -17 15 -13 16 -12 3 4 -13 16 -21 21 -21
13z"/>
<path d="M9426 9767 c3 -10 9 -15 12 -12 3 3 0 11 -7 18 -10 9 -11 8 -5 -6z"/>
<path d="M7025 9759 c-4 -6 -5 -12 -2 -15 2 -3 7 2 10 11 7 17 1 20 -8 4z"/>
<path d="M8200 9580 c6 -11 13 -20 16 -20 2 0 0 9 -6 20 -6 11 -13 20 -16 20
-2 0 0 -9 6 -20z"/>
<path d="M8226 9588 c3 -5 10 -6 15 -3 13 9 11 12 -6 12 -8 0 -12 -4 -9 -9z"/>
<path d="M8173 9531 c0 -11 5 -18 9 -15 4 3 5 11 1 19 -7 21 -12 19 -10 -4z"/>
<path d="M9229 9533 c-13 -16 -12 -17 4 -4 9 7 17 15 17 17 0 8 -8 3 -21 -13z"/>
<path d="M13144 9502 c2 -4 28 -19 56 -32 l52 -24 19 23 c10 13 19 27 19 32 0
5 -34 9 -76 9 -41 0 -73 -4 -70 -8z"/>
<path d="M5955 9439 c-60 -34 -112 -64 -115 -68 -3 -3 -23 -15 -45 -26 -22
-10 -58 -31 -80 -45 -22 -14 -62 -36 -89 -50 -70 -36 -132 -97 -145 -145 -14
-51 -15 -723 -1 -759 8 -22 16 -26 52 -26 42 0 44 2 310 267 147 147 273 280
279 296 11 27 14 28 20 11 4 -10 6 115 4 278 -2 220 -6 302 -15 313 -22 27
-63 16 -175 -46z"/>
<path d="M8350 9460 c6 -11 13 -20 16 -20 2 0 0 9 -6 20 -6 11 -13 20 -16 20
-2 0 0 -9 6 -20z"/>
<path d="M8376 9467 c3 -10 9 -15 12 -12 3 3 0 11 -7 18 -10 9 -11 8 -5 -6z"/>
<path d="M8316 9452 c-3 -5 1 -9 9 -9 8 0 12 4 9 9 -3 4 -7 8 -9 8 -2 0 -6 -4
-9 -8z"/>
<path d="M14666 9442 c-25 -40 -279 -155 -459 -207 -206 -60 -336 -79 -552
-78 -205 0 -299 14 -460 68 -79 26 -220 93 -269 128 l-29 20 6 -349 c5 -339
16 -494 52 -739 38 -262 104 -514 165 -636 28 -55 28 -56 15 -127 -72 -378
-269 -2170 -311 -2832 -6 -98 -9 -108 -39 -150 -78 -106 -269 -269 -375 -319
l-61 -29 58 -17 c166 -48 275 -167 305 -334 l13 -72 75 49 c41 26 117 88 169
136 51 48 143 120 205 160 154 102 156 106 156 258 l0 123 76 24 c57 18 77 29
84 46 5 13 43 157 85 322 42 164 96 375 120 468 24 94 74 287 110 430 160 630
217 850 219 852 4 5 72 -64 126 -127 30 -36 57 -67 60 -70 8 -7 189 -227 235
-285 22 -27 48 -59 57 -70 9 -11 30 -36 45 -57 58 -75 389 -473 421 -505 22
-23 42 -33 62 -33 30 0 30 -1 24 -42 -22 -168 -72 -341 -125 -434 l-29 -51 68
19 c70 20 175 26 233 13 58 -13 131 -55 189 -111 l57 -54 31 67 c16 38 42 120
56 183 37 164 43 184 88 288 21 52 41 115 44 140 5 45 2 52 -70 162 -48 72
-74 120 -70 130 4 8 16 39 27 68 l20 53 -60 87 c-61 90 -235 340 -511 738 -46
65 -152 218 -236 339 -84 121 -209 302 -279 402 l-127 183 49 152 c132 410
215 709 207 743 -3 12 6 71 19 131 47 205 68 393 62 559 -4 144 -15 212 -31
187z"/>
<path d="M8429 9406 c-14 -8 -45 -41 -69 -73 -24 -31 -50 -64 -57 -73 -7 -8
-49 -62 -94 -120 -102 -131 -126 -161 -143 -180 -26 -29 -36 -59 -36 -107 0
-41 7 -58 53 -125 29 -44 61 -81 74 -84 37 -10 86 24 143 99 30 39 101 132
158 207 57 74 107 137 113 138 5 2 9 8 9 14 0 9 37 57 76 99 54 59 72 167 32
193 -35 21 -226 30 -259 12z"/>
<path d="M9208 9330 c-9 -6 -33 -33 -53 -62 -21 -28 -41 -56 -46 -62 -5 -6
-30 -39 -57 -72 -48 -62 -77 -100 -129 -165 -15 -20 -38 -49 -50 -65 -12 -16
-67 -89 -123 -163 -137 -179 -137 -180 -30 -288 45 -46 84 -83 88 -83 23 0 72
49 142 141 44 57 103 133 132 168 29 36 78 97 108 137 30 39 93 120 139 179
70 89 84 114 89 151 5 45 5 45 -71 120 -77 74 -101 86 -139 64z"/>
<path d="M8226 9282 c-3 -5 1 -9 9 -9 8 0 12 4 9 9 -3 4 -7 8 -9 8 -2 0 -6 -4
-9 -8z"/>
<path d="M6996 9267 c3 -10 9 -15 12 -12 3 3 0 11 -7 18 -10 9 -11 8 -5 -6z"/>
<path d="M7923 9268 c-7 -9 -4 -19 9 -30 10 -10 18 -14 18 -9 0 6 -4 13 -10
16 -5 3 -10 11 -10 16 0 6 5 7 12 3 7 -4 8 -3 4 4 -9 15 -11 15 -23 0z"/>
<path d="M8824 9258 l-19 -23 23 19 c21 18 27 26 19 26 -2 0 -12 -10 -23 -22z"/>
<path d="M9640 9260 c6 -11 13 -20 16 -20 2 0 0 9 -6 20 -6 11 -13 20 -16 20
-2 0 0 -9 6 -20z"/>
<path d="M9666 9268 c3 -5 10 -6 15 -3 13 9 11 12 -6 12 -8 0 -12 -4 -9 -9z"/>
<path d="M9614 9240 c0 -13 4 -16 10 -10 7 7 7 13 0 20 -6 6 -10 3 -10 -10z"/>
<path d="M7026 9188 c3 -5 10 -6 15 -3 13 9 11 12 -6 12 -8 0 -12 -4 -9 -9z"/>
<path d="M8929 9133 c-13 -16 -12 -17 4 -4 16 13 21 21 13 21 -2 0 -10 -8 -17
-17z"/>
<path d="M8675 9109 c-4 -6 -5 -12 -2 -15 2 -3 7 2 10 11 7 17 1 20 -8 4z"/>
<path d="M8637 9046 c-3 -8 -2 -18 3 -21 13 -8 20 9 11 24 -6 10 -10 9 -14 -3z"/>
<path d="M9447 9022 c5 -11 7 -11 14 0 8 11 10 11 18 0 7 -11 9 -11 14 0 3 10
-3 14 -23 14 -20 0 -26 -4 -23 -14z"/>
<path d="M8816 9003 c-6 -14 -5 -15 5 -6 7 7 10 15 7 18 -3 3 -9 -2 -12 -12z"/>
<path d="M9380 8945 c-7 -9 -8 -15 -2 -15 5 0 12 7 16 15 3 8 4 15 2 15 -2 0
-9 -7 -16 -15z"/>
<path d="M9385 8910 c-3 -5 -1 -10 4 -10 6 0 11 5 11 10 0 6 -2 10 -4 10 -3 0
-8 -4 -11 -10z"/>
<path d="M8760 8899 c0 -5 5 -7 10 -4 6 3 10 8 10 11 0 2 -4 4 -10 4 -5 0 -10
-5 -10 -11z"/>
<path d="M6695 8889 c-43 -12 -1191 -1154 -1201 -1195 -4 -16 -10 -31 -13 -34
-3 -3 -5 -85 -3 -183 l3 -178 26 -10 c28 -11 74 0 102 25 9 7 36 25 61 38 93
52 405 232 410 238 3 3 23 14 45 25 22 11 126 70 232 132 106 61 225 131 265
154 285 165 276 158 360 262 102 126 128 171 128 225 0 36 -7 52 -38 90 -38
46 -141 177 -256 327 -68 87 -80 95 -121 84z"/>
<path d="M7334 8860 c0 -13 4 -16 10 -10 7 7 7 13 0 20 -6 6 -10 3 -10 -10z"/>
<path d="M7306 8853 c-6 -14 -5 -15 5 -6 7 7 10 15 7 18 -3 3 -9 -2 -12 -12z"/>
<path d="M6975 8829 c-4 -6 -5 -12 -2 -15 2 -3 7 2 10 11 7 17 1 20 -8 4z"/>
<path d="M7000 8820 c-6 -11 -8 -20 -6 -20 3 0 10 9 16 20 6 11 8 20 6 20 -3
0 -10 -9 -16 -20z"/>
<path d="M8697 8827 c3 -5 -1 -14 -8 -19 -11 -8 -11 -9 2 -5 9 3 23 0 30 -6
11 -10 11 -9 0 5 -7 9 -10 21 -7 26 3 5 -1 9 -9 9 -8 0 -11 -5 -8 -10z"/>
<path d="M8406 8792 c-3 -5 1 -9 9 -9 8 0 12 4 9 9 -3 4 -7 8 -9 8 -2 0 -6 -4
-9 -8z"/>
<path d="M9286 8773 c-6 -14 -5 -15 5 -6 7 7 10 15 7 18 -3 3 -9 -2 -12 -12z"/>
<path d="M6086 8712 c-3 -4 4 -9 15 -9 23 -2 25 3 4 10 -8 4 -16 3 -19 -1z"/>
<path d="M7120 8661 c0 -6 4 -13 10 -16 6 -3 7 1 4 9 -7 18 -14 21 -14 7z"/>
<path d="M7730 8661 c0 -5 7 -11 14 -14 10 -4 13 -1 9 9 -6 15 -23 19 -23 5z"/>
<path d="M9415 8660 c-4 -6 -11 -7 -17 -4 -7 4 -8 2 -4 -5 6 -9 11 -9 22 0 14
11 18 19 10 19 -3 0 -8 -5 -11 -10z"/>
<path d="M7789 8601 c-27 -28 -63 -70 -81 -94 -37 -49 -81 -104 -249 -316
-140 -177 -146 -185 -157 -236 -12 -53 -4 -71 65 -161 50 -65 61 -74 90 -74
38 0 84 41 154 135 24 33 54 71 67 85 13 14 38 45 55 70 17 24 37 51 44 60 60
73 210 271 224 297 20 35 26 127 10 137 -4 3 -30 37 -56 76 -44 65 -50 70 -83
70 -30 0 -44 -8 -83 -49z"/>
<path d="M6006 8632 c-3 -4 4 -9 15 -9 23 -2 25 3 4 10 -8 4 -16 3 -19 -1z"/>
<path d="M9125 8609 c-4 -6 -5 -12 -2 -15 2 -3 7 2 10 11 7 17 1 20 -8 4z"/>
<path d="M7206 8587 c3 -10 9 -15 12 -12 3 3 0 11 -7 18 -10 9 -11 8 -5 -6z"/>
<path d="M8540 8581 c0 -8 -7 -11 -17 -6 -15 5 -16 4 -5 -6 9 -10 15 -10 24
-1 6 6 9 15 5 19 -4 3 -7 1 -7 -6z"/>
<path d="M9320 8586 c0 -2 8 -10 18 -17 15 -13 16 -12 3 4 -13 16 -21 21 -21
13z"/>
<path d="M7635 8569 c-3 -4 2 -6 10 -5 21 3 28 13 10 13 -9 0 -18 -4 -20 -8z"/>
<path d="M8476 8572 c-3 -5 1 -9 9 -9 8 0 12 4 9 9 -3 4 -7 8 -9 8 -2 0 -6 -4
-9 -8z"/>
<path d="M5926 8552 c-3 -4 4 -9 15 -9 23 -2 25 3 4 10 -8 4 -16 3 -19 -1z"/>
<path d="M9073 8548 c-15 -20 -25 -38 -20 -38 3 0 12 11 21 25 17 26 16 35 -1
13z"/>
<path d="M7571 8506 c-9 -10 -8 -15 3 -19 9 -4 18 -1 22 5 5 7 2 8 -6 3 -10
-6 -12 -4 -7 8 8 21 3 22 -12 3z"/>
<path d="M5846 8472 c-3 -4 4 -9 15 -9 23 -2 25 3 4 10 -8 4 -16 3 -19 -1z"/>
<path d="M8177 8461 c-10 -14 -10 -14 4 -4 9 7 18 10 21 7 3 -3 8 -1 12 4 9
16 -24 9 -37 -7z"/>
<path d="M7296 8455 c-9 -26 -7 -32 5 -12 6 10 9 21 6 23 -2 3 -7 -2 -11 -11z"/>
<path d="M5766 8392 c-3 -4 4 -9 15 -9 23 -2 25 3 4 10 -8 4 -16 3 -19 -1z"/>
<path d="M7276 8388 c3 -5 10 -6 15 -3 13 9 11 12 -6 12 -8 0 -12 -4 -9 -9z"/>
<path d="M8106 8388 c3 -5 9 -7 12 -4 3 3 12 0 21 -6 13 -10 14 -10 4 2 -15
16 -46 23 -37 8z"/>
<path d="M8094 8359 c-4 -7 -3 -9 4 -5 5 3 13 0 15 -6 4 -9 6 -10 6 -1 1 17
-16 25 -25 12z"/>
<path d="M8304 8349 c-3 -6 -2 -15 3 -20 5 -5 9 -1 9 11 0 23 -2 24 -12 9z"/>
<path d="M8458 8349 c-16 -9 -126 -142 -194 -234 -16 -22 -37 -49 -46 -60 -9
-11 -60 -76 -112 -145 -142 -185 -160 -208 -288 -370 -65 -82 -118 -154 -118
-159 0 -14 13 -14 28 1 6 6 15 8 19 4 4 -4 1 -12 -7 -17 -13 -9 -13 -10 0 -6
8 2 15 12 15 21 0 12 44 43 140 98 77 44 151 87 165 96 14 9 36 22 50 27 14 6
74 39 134 75 82 49 118 77 147 115 21 27 72 93 113 145 125 158 155 205 147
239 -6 31 -47 80 -119 144 -46 40 -49 41 -74 26z"/>
<path d="M9175 8340 c-3 -5 -1 -10 4 -10 6 0 11 5 11 10 0 6 -2 10 -4 10 -3 0
-8 -4 -11 -10z"/>
<path d="M5686 8312 c-3 -4 4 -9 15 -9 23 -2 25 3 4 10 -8 4 -16 3 -19 -1z"/>
<path d="M7416 8248 c3 -5 10 -6 15 -3 13 9 11 12 -6 12 -8 0 -12 -4 -9 -9z"/>
<path d="M5606 8232 c-3 -4 4 -9 15 -9 23 -2 25 3 4 10 -8 4 -16 3 -19 -1z"/>
<path d="M7335 8181 c-3 -5 -2 -12 3 -15 5 -3 9 1 9 9 0 17 -3 19 -12 6z"/>
<path d="M8215 8180 c-3 -5 -1 -10 4 -10 6 0 11 5 11 10 0 6 -2 10 -4 10 -3 0
-8 -4 -11 -10z"/>
<path d="M8800 8181 c0 -6 4 -13 10 -16 6 -3 7 1 4 9 -7 18 -14 21 -14 7z"/>
<path d="M5526 8152 c-3 -4 4 -9 15 -9 23 -2 25 3 4 10 -8 4 -16 3 -19 -1z"/>
<path d="M8105 8091 c-3 -5 -2 -12 3 -15 5 -3 9 1 9 9 0 17 -3 19 -12 6z"/>
<path d="M7000 8060 c6 -11 13 -20 16 -20 2 0 0 9 -6 20 -6 11 -13 20 -16 20
-2 0 0 -9 6 -20z"/>
<path d="M7026 8068 c3 -5 10 -6 15 -3 13 9 11 12 -6 12 -8 0 -12 -4 -9 -9z"/>
<path d="M8936 8067 c3 -10 9 -15 12 -12 3 3 0 11 -7 18 -10 9 -11 8 -5 -6z"/>
<path d="M7845 8039 c-4 -6 -5 -12 -2 -15 2 -3 7 2 10 11 7 17 1 20 -8 4z"/>
<path d="M7870 8030 c-9 -6 -10 -10 -3 -10 6 0 15 5 18 10 8 12 4 12 -15 0z"/>
<path d="M8910 8020 c6 -11 13 -20 16 -20 2 0 0 9 -6 20 -6 11 -13 20 -16 20
-2 0 0 -9 6 -20z"/>
<path d="M5341 7984 c0 -11 3 -14 6 -6 3 7 2 16 -1 19 -3 4 -6 -2 -5 -13z"/>
<path d="M5574 7948 l-19 -23 23 19 c21 18 27 26 19 26 -2 0 -12 -10 -23 -22z"/>
<path d="M7150 7940 c6 -11 13 -20 16 -20 2 0 0 9 -6 20 -6 11 -13 20 -16 20
-2 0 0 -9 6 -20z"/>
<path d="M7990 7940 c-6 -11 -8 -20 -6 -20 3 0 10 9 16 20 6 11 8 20 6 20 -3
0 -10 -9 -16 -20z"/>
<path d="M7116 7932 c-3 -5 1 -9 9 -9 8 0 12 4 9 9 -3 4 -7 8 -9 8 -2 0 -6 -4
-9 -8z"/>
<path d="M7145 7830 c-3 -5 -1 -10 4 -10 6 0 11 5 11 10 0 6 -2 10 -4 10 -3 0
-8 -4 -11 -10z"/>
<path d="M6505 7720 c-3 -6 1 -7 9 -4 18 7 21 14 7 14 -6 0 -13 -4 -16 -10z"/>
<path d="M7816 7688 c3 -5 10 -6 15 -3 13 9 11 12 -6 12 -8 0 -12 -4 -9 -9z"/>
<path d="M7560 7660 c6 -11 13 -20 16 -20 2 0 0 9 -6 20 -6 11 -13 20 -16 20
-2 0 0 -9 6 -20z"/>
<path d="M8415 7669 c-4 -6 -5 -12 -2 -15 2 -3 7 2 10 11 7 17 1 20 -8 4z"/>
<path d="M7533 7616 c3 -7 0 -20 -6 -27 -10 -11 -9 -11 5 0 15 11 15 41 1 41
-3 0 -3 -6 0 -14z"/>
<path d="M7046 7547 c3 -10 9 -15 12 -12 3 3 0 11 -7 18 -10 9 -11 8 -5 -6z"/>
<path d="M7356 7508 c3 -5 10 -6 15 -3 13 9 11 12 -6 12 -8 0 -12 -4 -9 -9z"/>
<path d="M7390 7498 c-11 -22 -11 -22 5 -3 14 17 17 18 26 5 9 -12 10 -12 7
-1 -7 24 -26 24 -38 -1z"/>
<path d="M6775 7488 c-16 -6 -41 -19 -55 -28 -32 -22 -226 -133 -310 -178 -36
-19 -72 -41 -81 -48 -8 -8 -19 -14 -22 -14 -4 0 -36 -18 -72 -40 -36 -22 -68
-40 -70 -40 -3 0 -42 -22 -86 -50 -44 -27 -83 -50 -85 -50 -2 0 -48 -26 -102
-58 -53 -33 -137 -82 -187 -111 -49 -28 -97 -56 -105 -60 -8 -5 -70 -40 -137
-78 -82 -45 -124 -75 -127 -89 -3 -11 -5 -195 -5 -407 0 -296 3 -387 13 -387
6 0 99 51 206 113 107 63 366 212 575 332 209 120 408 236 443 257 34 21 64
38 67 38 3 0 53 29 112 64 60 35 200 116 313 181 113 65 207 119 209 121 2 2
-9 20 -25 41 -16 21 -32 43 -36 48 -4 6 -21 26 -38 46 -16 20 -30 39 -30 43 0
3 -11 19 -25 35 -23 25 -122 153 -209 268 -45 60 -73 71 -131 51z"/>
<path d="M7656 7448 c3 -5 10 -6 15 -3 13 9 11 12 -6 12 -8 0 -12 -4 -9 -9z"/>
<path d="M6375 7410 c-3 -6 1 -7 9 -4 18 7 21 14 7 14 -6 0 -13 -4 -16 -10z"/>
<path d="M5897 7349 c7 -7 15 -10 18 -7 3 3 -2 9 -12 12 -14 6 -15 5 -6 -5z"/>
<path d="M2324 7308 c-17 -18 -41 -50 -53 -71 -13 -20 -27 -35 -32 -31 -5 3
-9 2 -8 -3 4 -21 -2 -34 -13 -27 -7 5 -8 3 -3 -6 4 -7 3 -15 -2 -19 -6 -3 -30
-52 -56 -107 -117 -261 -145 -557 -82 -852 23 -106 29 -121 63 -155 58 -60 68
-63 102 -29 27 28 28 31 18 73 -6 24 -11 100 -11 169 0 98 4 144 22 215 30
115 94 252 158 336 75 98 73 102 -10 18 -177 -180 -253 -376 -245 -628 1 -60
0 -107 -3 -103 -10 11 -37 101 -56 187 -25 114 -25 399 0 510 42 186 109 350
197 479 28 42 49 76 47 76 -2 0 -17 -15 -33 -32z"/>
<path d="M5451 7324 c0 -11 3 -14 6 -6 3 7 2 16 -1 19 -3 4 -6 -2 -5 -13z"/>
<path d="M6140 7280 c-9 -6 -10 -10 -3 -10 6 0 15 5 18 10 8 12 4 12 -15 0z"/>
<path d="M7566 7282 c-2 -4 4 -8 14 -8 10 0 16 4 14 8 -3 4 -9 8 -14 8 -5 0
-11 -4 -14 -8z"/>
<path d="M5605 7170 c-3 -6 1 -7 9 -4 18 7 21 14 7 14 -6 0 -13 -4 -16 -10z"/>
<path d="M7360 7140 c6 -11 13 -20 16 -20 2 0 0 9 -6 20 -6 11 -13 20 -16 20
-2 0 0 -9 6 -20z"/>
<path d="M1776 7003 c-30 -137 -40 -294 -28 -423 13 -129 49 -286 90 -388 l27
-67 48 -5 c26 -3 46 -3 45 0 -2 3 -20 39 -40 81 -44 90 -90 223 -113 329 -22
102 -31 369 -15 466 6 42 10 78 7 80 -2 2 -12 -31 -21 -73z"/>
<path d="M7415 7060 c-4 -6 -10 -8 -14 -6 -4 3 -13 0 -21 -5 -11 -7 -10 -8 8
-6 20 3 56 27 40 27 -4 0 -10 -5 -13 -10z"/>
<path d="M5353 6823 c-17 -6 -17 -20 0 -20 8 0 14 6 14 14 0 7 -1 13 -1 12 -1
0 -7 -3 -13 -6z"/>
<path d="M1633 5965 c-3 -9 -3 -18 -1 -21 3 -3 8 4 11 16 6 23 -1 27 -10 5z"/>
<path d="M9415 3927 c43 -60 111 -175 132 -225 8 -20 21 -51 29 -67 72 -154
111 -412 93 -610 -10 -108 -35 -233 -61 -308 -12 -34 -13 -27 -14 95 0 93 -6
154 -18 203 -38 148 -117 291 -218 395 -60 63 -109 102 -67 55 176 -199 267
-518 216 -762 l-14 -62 34 -33 34 -33 53 55 c42 43 54 64 60 99 4 24 10 49 13
55 4 5 7 19 8 30 1 12 8 62 15 111 14 101 8 360 -10 435 -6 25 -13 56 -15 70
-4 27 -57 178 -77 220 -38 78 -126 213 -174 265 -52 56 -53 57 -19 12z"/>
<path d="M9963 3670 c3 -14 11 -68 18 -120 28 -227 -28 -536 -136 -749 -19
-39 -35 -73 -35 -76 0 -3 20 -5 43 -5 l44 0 26 68 c76 197 102 360 94 572 -6
132 -35 312 -53 329 -4 3 -4 -5 -1 -19z"/>
<path d="M9661 3554 c0 -11 3 -14 6 -6 3 7 2 16 -1 19 -3 4 -6 -2 -5 -13z"/>
<path d="M10260 2190 c0 -5 5 -10 10 -10 6 0 10 5 10 10 0 6 -4 10 -10 10 -5
0 -10 -4 -10 -10z"/>
<path d="M9340 2066 c0 -2 7 -7 16 -10 8 -3 12 -2 9 4 -6 10 -25 14 -25 6z"/>
<path d="M8620 2006 c0 -2 8 -10 18 -17 15 -13 16 -12 3 4 -13 16 -21 21 -21
13z"/>
</g>
</svg>
